<?xml version="1.0" encoding="UTF-8"?>
<!DOCTYPE svg PUBLIC "-//W3C//DTD SVG 1.1//EN" "http://www.w3.org/Graphics/SVG/1.1/DTD/svg11.dtd">
<svg xmlns="http://www.w3.org/2000/svg" version="1.1" width="832px" height="678px" style="shape-rendering:geometricPrecision; text-rendering:geometricPrecision; image-rendering:optimizeQuality; fill-rule:evenodd; clip-rule:evenodd" xmlns:xlink="http://www.w3.org/1999/xlink">
<g><path style="opacity:0.039" fill="#fdfaf7" d="M 297.5,-0.5 C 302.5,-0.5 307.5,-0.5 312.5,-0.5C 300.455,4.10567 288.121,8.27234 275.5,12C 274.944,12.3826 274.611,12.8826 274.5,13.5C 252.585,19.3606 230.918,26.0273 209.5,33.5C 180.57,42.313 151.904,51.6464 123.5,61.5C 82.1088,74.8438 40.7754,88.1771 -0.5,101.5C -0.5,99.8333 -0.5,98.1667 -0.5,96.5C 99.0853,64.448 198.419,32.1146 297.5,-0.5 Z"/></g>
<g><path style="opacity:0.987" fill="#fedfa7" d="M 512.5,-0.5 C 514.5,-0.5 516.5,-0.5 518.5,-0.5C 542.1,8.19935 566.1,16.0327 590.5,23C 591.167,23.6667 591.833,24.3333 592.5,25C 603.85,27.7473 614.85,31.2473 625.5,35.5C 626.6,36.5585 627.934,37.3918 629.5,38C 628.5,39 627.5,40 626.5,41C 628.457,42.7456 629.457,44.9122 629.5,47.5C 625.239,46.9492 621.072,46.9492 617,47.5C 616,46.8333 615,46.1667 614,45.5C 612.475,46.7201 610.641,47.3868 608.5,47.5C 603.911,47.7509 599.245,47.0842 594.5,45.5C 592.359,45.6132 590.525,46.2799 589,47.5C 572.313,46.5531 555.647,46.2197 539,46.5C 532.055,48.4707 525.055,48.8041 518,47.5C 511.247,48.314 504.414,48.814 497.5,49C 495.77,50.8524 494.604,50.6857 494,48.5C 488.464,50.4255 482.631,51.0922 476.5,50.5C 476.307,54.449 475.807,54.449 475,50.5C 474.492,52.9042 473.325,53.5709 471.5,52.5C 469.742,53.1279 468.242,54.1279 467,55.5C 463.546,54.3069 461.046,55.4735 459.5,59C 460.711,60.1131 460.711,61.2798 459.5,62.5C 457.234,63.3142 454.9,63.8142 452.5,64C 453.672,64.4186 454.672,65.0853 455.5,66C 453.866,66.4935 452.199,66.6602 450.5,66.5C 450.5,67.5 450.5,68.5 450.5,69.5C 446.786,69.8809 443.286,69.8809 440,69.5C 439.612,67.2853 438.612,65.952 437,65.5C 436,66.8333 435,68.1667 434,69.5C 433.535,68.0692 432.701,66.9025 431.5,66C 431.833,65.6667 432.167,65.3333 432.5,65C 431.263,64.7679 430.263,64.2679 429.5,63.5C 448.901,48.4804 468.234,33.4804 487.5,18.5C 496.706,13.2909 505.04,6.95757 512.5,-0.5 Z"/></g>
<g><path style="opacity:0.034" fill="#fefcf6" d="M 518.5,-0.5 C 523.5,-0.5 528.5,-0.5 533.5,-0.5C 632.953,32.1951 732.286,65.1951 831.5,98.5C 831.5,99.8333 831.5,101.167 831.5,102.5C 791.239,90.2647 751.239,77.0981 711.5,63C 682.725,53.9071 654.058,44.7405 625.5,35.5C 614.85,31.2473 603.85,27.7473 592.5,25C 591.833,24.3333 591.167,23.6667 590.5,23C 566.1,16.0327 542.1,8.19935 518.5,-0.5 Z"/></g>
<g><path style="opacity:0.064" fill="#fdf8f6" d="M 315.5,-0.5 C 318.167,-0.5 320.833,-0.5 323.5,-0.5C 351.315,21.1365 379.315,42.6365 407.5,64C 409.833,65.1667 412.167,66.3333 414.5,67.5C 422.03,62.1375 429.697,56.9709 437.5,52C 449.833,42.3333 462.167,32.6667 474.5,23C 483.5,16.6667 492.5,10.3333 501.5,4C 503.041,2.62879 504.375,1.12879 505.5,-0.5C 507.833,-0.5 510.167,-0.5 512.5,-0.5C 505.04,6.95757 496.706,13.2909 487.5,18.5C 468.234,33.4804 448.901,48.4804 429.5,63.5C 424.734,66.1023 420.401,69.269 416.5,73C 415.207,73.49 413.873,73.6567 412.5,73.5C 409.833,71.8333 407.167,70.1667 404.5,68.5C 403.833,67.1667 402.833,66.1667 401.5,65.5C 372.524,43.8521 343.858,21.8521 315.5,-0.5 Z"/></g>
<g><path style="opacity:1" fill="#f14633" d="M 312.5,-0.5 C 313.5,-0.5 314.5,-0.5 315.5,-0.5C 343.858,21.8521 372.524,43.8521 401.5,65.5C 379.525,67.4894 357.192,68.156 334.5,67.5C 326.167,60.1667 317.833,52.8333 309.5,45.5C 298.443,34.143 286.776,23.4764 274.5,13.5C 274.611,12.8826 274.944,12.3826 275.5,12C 288.121,8.27234 300.455,4.10567 312.5,-0.5 Z"/></g>
<g><path style="opacity:0.998" fill="#eaaa72" d="M 274.5,13.5 C 286.776,23.4764 298.443,34.143 309.5,45.5C 308.325,45.281 307.325,45.6143 306.5,46.5C 308.351,48.1837 310.018,50.0171 311.5,52C 310,53.1145 308.333,53.9479 306.5,54.5C 306.089,53.7376 305.923,52.7376 306,51.5C 304.602,52.0509 303.268,52.3842 302,52.5C 301.5,51.3333 300.667,50.5 299.5,50C 302.063,49.237 302.063,48.737 299.5,48.5C 298.353,48.8178 297.519,49.4844 297,50.5C 296.02,48.7406 295.353,47.0739 295,45.5C 294.833,47.6667 294.667,49.8333 294.5,52C 295.05,69.4926 295.884,87.3259 297,105.5C 297.333,103.833 297.667,102.167 298,100.5C 298.914,101.654 299.747,101.487 300.5,100C 299.2,95.5503 299.2,91.0503 300.5,86.5C 301.958,88.1385 302.292,89.8051 301.5,91.5C 303.385,92.1973 303.718,93.1973 302.5,94.5C 303.522,95.354 304.355,96.354 305,97.5C 306.418,94.999 307.418,95.3323 308,98.5C 308.654,97.3044 309.154,97.3044 309.5,98.5C 309.894,100.424 309.227,102.257 307.5,104C 308.337,105.011 308.67,106.178 308.5,107.5C 312.785,106.705 317.119,106.372 321.5,106.5C 321.5,106.833 321.5,107.167 321.5,107.5C 315.029,109.102 308.696,111.102 302.5,113.5C 289.006,117.997 275.673,122.663 262.5,127.5C 262.167,127.5 261.833,127.5 261.5,127.5C 259.597,127.796 257.93,128.463 256.5,129.5C 237.047,135.528 217.714,141.862 198.5,148.5C 198.196,147.85 197.863,147.183 197.5,146.5C 199.423,145.692 201.423,145.192 203.5,145C 202.542,143.853 202.875,142.853 204.5,142C 203.833,141.667 203.167,141.333 202.5,141C 203.755,126.672 204.422,112.005 204.5,97C 204.106,81.4332 204.106,65.9332 204.5,50.5C 203.721,46.6553 201.388,44.9887 197.5,45.5C 197.713,42.525 198.713,39.8584 200.5,37.5C 201.216,38.311 202.05,38.9777 203,39.5C 204.368,38.2974 205.868,37.2974 207.5,36.5C 208.675,37.8549 209.675,37.6883 210.5,36C 209.748,35.3292 209.414,34.4959 209.5,33.5C 230.918,26.0273 252.585,19.3606 274.5,13.5 Z"/></g>
<g><path style="opacity:1" fill="#e5a46b" d="M 309.5,45.5 C 317.833,52.8333 326.167,60.1667 334.5,67.5C 357.661,68.4975 380.994,68.8309 404.5,68.5C 407.167,70.1667 409.833,71.8333 412.5,73.5C 412.833,74.1667 413.167,74.8333 413.5,75.5C 412.005,75.9887 410.671,76.6554 409.5,77.5C 380.196,87.1464 350.863,96.8131 321.5,106.5C 317.119,106.372 312.785,106.705 308.5,107.5C 308.67,106.178 308.337,105.011 307.5,104C 309.227,102.257 309.894,100.424 309.5,98.5C 309.154,97.3044 308.654,97.3044 308,98.5C 307.418,95.3323 306.418,94.999 305,97.5C 304.355,96.354 303.522,95.354 302.5,94.5C 303.718,93.1973 303.385,92.1973 301.5,91.5C 302.292,89.8051 301.958,88.1385 300.5,86.5C 299.2,91.0503 299.2,95.5503 300.5,100C 299.747,101.487 298.914,101.654 298,100.5C 297.667,102.167 297.333,103.833 297,105.5C 295.884,87.3259 295.05,69.4926 294.5,52C 294.667,49.8333 294.833,47.6667 295,45.5C 295.353,47.0739 296.02,48.7406 297,50.5C 297.519,49.4844 298.353,48.8178 299.5,48.5C 302.063,48.737 302.063,49.237 299.5,50C 300.667,50.5 301.5,51.3333 302,52.5C 303.268,52.3842 304.602,52.0509 306,51.5C 305.923,52.7376 306.089,53.7376 306.5,54.5C 308.333,53.9479 310,53.1145 311.5,52C 310.018,50.0171 308.351,48.1837 306.5,46.5C 307.325,45.6143 308.325,45.281 309.5,45.5 Z"/></g>
<g><path style="opacity:0.999" fill="#fee1ab" d="M 625.5,35.5 C 654.058,44.7405 682.725,53.9071 711.5,63C 751.239,77.0981 791.239,90.2647 831.5,102.5C 831.5,103.833 831.5,105.167 831.5,106.5C 825.167,111.167 818.833,115.833 812.5,120.5C 811.305,120.322 810.138,119.989 809,119.5C 805.849,121.717 802.349,123.051 798.5,123.5C 798.5,121.833 798.5,120.167 798.5,118.5C 799.833,118.5 801.167,118.5 802.5,118.5C 802.5,117.167 802.5,115.833 802.5,114.5C 803.873,114.657 805.207,114.49 806.5,114C 798.63,110.76 790.63,107.593 782.5,104.5C 777.189,104.005 772.022,103.005 767,101.5C 765.14,103.915 763.474,103.915 762,101.5C 761.612,102.428 760.945,103.095 760,103.5C 758.328,102.495 756.995,101.161 756,99.5C 754.685,101.316 753.185,102.983 751.5,104.5C 745.333,104.833 739.167,105.167 733,105.5C 720.142,105.404 707.475,104.071 695,101.5C 693.14,103.915 691.474,103.915 690,101.5C 688.991,102.658 687.658,103.325 686,103.5C 683.941,103.007 681.941,102.34 680,101.5C 675.258,102.874 670.424,103.874 665.5,104.5C 644.953,105.898 624.453,107.565 604,109.5C 594.901,108.033 585.735,107.033 576.5,106.5C 572.646,105.578 568.813,104.578 565,103.5C 560.218,105.151 555.385,106.485 550.5,107.5C 550.36,105.876 551.027,104.71 552.5,104C 550.893,102.951 550.227,101.451 550.5,99.5C 546.003,100.055 541.836,99.3888 538,97.5C 537.5,98.6667 536.667,99.5 535.5,100C 540.155,100.499 544.821,100.666 549.5,100.5C 549.5,101.5 549.5,102.5 549.5,103.5C 539.5,103.5 529.5,103.5 519.5,103.5C 521.279,106.286 522.612,109.286 523.5,112.5C 487.449,100.705 451.449,88.7052 415.5,76.5C 415.5,75.8333 415.167,75.5 414.5,75.5C 414.167,75.5 413.833,75.5 413.5,75.5C 413.167,74.8333 412.833,74.1667 412.5,73.5C 413.873,73.6567 415.207,73.49 416.5,73C 420.401,69.269 424.734,66.1023 429.5,63.5C 430.263,64.2679 431.263,64.7679 432.5,65C 432.167,65.3333 431.833,65.6667 431.5,66C 432.701,66.9025 433.535,68.0692 434,69.5C 435,68.1667 436,66.8333 437,65.5C 438.612,65.952 439.612,67.2853 440,69.5C 443.286,69.8809 446.786,69.8809 450.5,69.5C 450.5,68.5 450.5,67.5 450.5,66.5C 452.199,66.6602 453.866,66.4935 455.5,66C 454.672,65.0853 453.672,64.4186 452.5,64C 454.9,63.8142 457.234,63.3142 459.5,62.5C 460.711,61.2798 460.711,60.1131 459.5,59C 461.046,55.4735 463.546,54.3069 467,55.5C 468.242,54.1279 469.742,53.1279 471.5,52.5C 473.325,53.5709 474.492,52.9042 475,50.5C 475.807,54.449 476.307,54.449 476.5,50.5C 482.631,51.0922 488.464,50.4255 494,48.5C 494.604,50.6857 495.77,50.8524 497.5,49C 504.414,48.814 511.247,48.314 518,47.5C 525.055,48.8041 532.055,48.4707 539,46.5C 555.647,46.2197 572.313,46.5531 589,47.5C 590.525,46.2799 592.359,45.6132 594.5,45.5C 599.245,47.0842 603.911,47.7509 608.5,47.5C 610.641,47.3868 612.475,46.7201 614,45.5C 615,46.1667 616,46.8333 617,47.5C 621.072,46.9492 625.239,46.9492 629.5,47.5C 629.457,44.9122 628.457,42.7456 626.5,41C 627.5,40 628.5,39 629.5,38C 627.934,37.3918 626.6,36.5585 625.5,35.5 Z"/></g>
<g><path style="opacity:0.999" fill="#eeb079" d="M 209.5,33.5 C 209.414,34.4959 209.748,35.3292 210.5,36C 209.675,37.6883 208.675,37.8549 207.5,36.5C 205.868,37.2974 204.368,38.2974 203,39.5C 202.05,38.9777 201.216,38.311 200.5,37.5C 198.713,39.8584 197.713,42.525 197.5,45.5C 201.388,44.9887 203.721,46.6553 204.5,50.5C 204.106,65.9332 204.106,81.4332 204.5,97C 204.422,112.005 203.755,126.672 202.5,141C 203.167,141.333 203.833,141.667 204.5,142C 202.875,142.853 202.542,143.853 203.5,145C 201.423,145.192 199.423,145.692 197.5,146.5C 197.863,147.183 198.196,147.85 198.5,148.5C 171.257,158.026 143.924,167.359 116.5,176.5C 116.017,174.13 114.851,173.463 113,174.5C 112.517,173.552 112.351,172.552 112.5,171.5C 110.654,171.778 109.32,171.111 108.5,169.5C 110.019,167.444 110.853,165.11 111,162.5C 111.333,163.167 111.667,163.833 112,164.5C 114.106,162.709 116.606,162.042 119.5,162.5C 119.67,163.822 119.337,164.989 118.5,166C 118.998,167.158 119.831,167.991 121,168.5C 122.651,167.258 124.485,166.424 126.5,166C 125.003,164.129 123.003,163.129 120.5,163C 122.473,162.505 124.473,162.338 126.5,162.5C 127.148,133.01 126.481,103.677 124.5,74.5C 124.977,73.5224 125.643,72.6891 126.5,72C 122.101,73.2821 117.601,73.7821 113,73.5C 112.333,71.8333 112.333,70.1667 113,68.5C 114.147,69.4581 115.147,69.1247 116,67.5C 116.308,68.3081 116.808,68.9747 117.5,69.5C 117.296,68.4706 117.796,67.4706 119,66.5C 119.333,66.8333 119.667,67.1667 120,67.5C 121.11,65.9632 122.61,65.2965 124.5,65.5C 124.567,64.0413 124.234,62.7079 123.5,61.5C 151.904,51.6464 180.57,42.313 209.5,33.5 Z"/></g>
<g><path style="opacity:1" fill="#ed7851" d="M 401.5,65.5 C 402.833,66.1667 403.833,67.1667 404.5,68.5C 380.994,68.8309 357.661,68.4975 334.5,67.5C 357.192,68.156 379.525,67.4894 401.5,65.5 Z"/></g>
<g><path style="opacity:0.997" fill="#f1b680" d="M 123.5,61.5 C 124.234,62.7079 124.567,64.0413 124.5,65.5C 122.61,65.2965 121.11,65.9632 120,67.5C 119.667,67.1667 119.333,66.8333 119,66.5C 117.796,67.4706 117.296,68.4706 117.5,69.5C 116.808,68.9747 116.308,68.3081 116,67.5C 115.147,69.1247 114.147,69.4581 113,68.5C 112.333,70.1667 112.333,71.8333 113,73.5C 117.601,73.7821 122.101,73.2821 126.5,72C 125.643,72.6891 124.977,73.5224 124.5,74.5C 126.481,103.677 127.148,133.01 126.5,162.5C 124.473,162.338 122.473,162.505 120.5,163C 123.003,163.129 125.003,164.129 126.5,166C 124.485,166.424 122.651,167.258 121,168.5C 119.831,167.991 118.998,167.158 118.5,166C 119.337,164.989 119.67,163.822 119.5,162.5C 116.606,162.042 114.106,162.709 112,164.5C 111.667,163.833 111.333,163.167 111,162.5C 110.853,165.11 110.019,167.444 108.5,169.5C 109.32,171.111 110.654,171.778 112.5,171.5C 112.351,172.552 112.517,173.552 113,174.5C 114.851,173.463 116.017,174.13 116.5,176.5C 116.5,176.833 116.5,177.167 116.5,177.5C 110.3,178.342 104.633,180.342 99.5,183.5C 97.3881,184.275 95.3881,184.275 93.5,183.5C 61.8749,157.877 30.5416,131.877 -0.5,105.5C -0.5,104.167 -0.5,102.833 -0.5,101.5C 40.7754,88.1771 82.1088,74.8438 123.5,61.5 Z"/></g>
<g><path style="opacity:1" fill="#193b72" d="M 409.5,77.5 C 410.5,77.5 411.5,77.5 412.5,77.5C 412.66,79.1992 412.494,80.8659 412,82.5C 407.312,90.2057 403.478,98.2057 400.5,106.5C 399.877,101.685 397.377,98.018 393,95.5C 392.5,95.6667 392,95.8333 391.5,96C 394.167,98 394.167,100 391.5,102C 392.973,102.71 393.64,103.876 393.5,105.5C 390.996,105.172 389.162,103.838 388,101.5C 382.707,107.429 379.374,106.429 378,98.5C 377.667,98.8333 377.333,99.1667 377,99.5C 376.626,98.5838 376.126,97.7504 375.5,97C 373.721,97.9791 372.055,97.6458 370.5,96C 371.451,95.2825 371.617,94.4491 371,93.5C 369.174,95.0738 367.007,95.9071 364.5,96C 363.107,97.1711 362.273,98.6711 362,100.5C 360.184,98.5586 358.184,97.8919 356,98.5C 349.464,100.858 342.631,103.358 335.5,106C 330.898,107.122 326.232,107.622 321.5,107.5C 321.5,107.167 321.5,106.833 321.5,106.5C 350.863,96.8131 380.196,87.1464 409.5,77.5 Z"/></g>
<g><path style="opacity:1" fill="#163d79" d="M 400.5,106.5 C 399.403,109.686 398.07,112.686 396.5,115.5C 395.883,115.389 395.383,115.056 395,114.5C 392.667,120.564 390.334,126.23 388,131.5C 386.989,132.337 385.822,132.67 384.5,132.5C 384.413,135.598 384.913,135.932 386,133.5C 386.23,136.305 385.064,138.471 382.5,140C 383.76,142.213 384.426,144.713 384.5,147.5C 384.333,149.833 384.167,152.167 384,154.5C 383.25,155.126 382.416,155.626 381.5,156C 382.574,156.739 383.241,157.739 383.5,159C 382.833,161 382.167,163 381.5,165C 364.855,180.665 348.522,195.998 332.5,211C 330.863,211.601 329.197,212.101 327.5,212.5C 314.216,208.738 300.883,204.904 287.5,201C 286.874,200.25 286.374,199.416 286,198.5C 285.692,199.308 285.192,199.975 284.5,200.5C 278.591,198.19 272.591,196.19 266.5,194.5C 266.157,208.192 265.157,221.525 263.5,234.5C 263.5,198.833 263.5,163.167 263.5,127.5C 268.271,127.106 272.938,127.106 277.5,127.5C 277.5,126.167 277.5,124.833 277.5,123.5C 281.283,123.076 284.95,122.91 288.5,123C 287.663,121.989 287.33,120.822 287.5,119.5C 289.807,119.014 291.973,119.014 294,119.5C 297.299,118.106 300.132,116.106 302.5,113.5C 308.696,111.102 315.029,109.102 321.5,107.5C 326.232,107.622 330.898,107.122 335.5,106C 342.631,103.358 349.464,100.858 356,98.5C 358.184,97.8919 360.184,98.5586 362,100.5C 362.273,98.6711 363.107,97.1711 364.5,96C 367.007,95.9071 369.174,95.0738 371,93.5C 371.617,94.4491 371.451,95.2825 370.5,96C 372.055,97.6458 373.721,97.9791 375.5,97C 376.126,97.7504 376.626,98.5838 377,99.5C 377.333,99.1667 377.667,98.8333 378,98.5C 379.374,106.429 382.707,107.429 388,101.5C 389.162,103.838 390.996,105.172 393.5,105.5C 393.64,103.876 392.973,102.71 391.5,102C 394.167,100 394.167,98 391.5,96C 392,95.8333 392.5,95.6667 393,95.5C 397.377,98.018 399.877,101.685 400.5,106.5 Z"/></g>
<g><path style="opacity:1" fill="#fee1b1" d="M 812.5,120.5 C 806.363,126.467 800.03,132.301 793.5,138C 781.472,148.331 769.138,158.164 756.5,167.5C 750.099,173.571 743.766,179.571 737.5,185.5C 735.299,184.434 732.965,183.767 730.5,183.5C 661.436,160.034 592.436,136.368 523.5,112.5C 522.612,109.286 521.279,106.286 519.5,103.5C 529.5,103.5 539.5,103.5 549.5,103.5C 549.5,102.5 549.5,101.5 549.5,100.5C 544.821,100.666 540.155,100.499 535.5,100C 536.667,99.5 537.5,98.6667 538,97.5C 541.836,99.3888 546.003,100.055 550.5,99.5C 550.227,101.451 550.893,102.951 552.5,104C 551.027,104.71 550.36,105.876 550.5,107.5C 555.385,106.485 560.218,105.151 565,103.5C 568.813,104.578 572.646,105.578 576.5,106.5C 585.735,107.033 594.901,108.033 604,109.5C 624.453,107.565 644.953,105.898 665.5,104.5C 670.424,103.874 675.258,102.874 680,101.5C 681.941,102.34 683.941,103.007 686,103.5C 687.658,103.325 688.991,102.658 690,101.5C 691.474,103.915 693.14,103.915 695,101.5C 707.475,104.071 720.142,105.404 733,105.5C 739.167,105.167 745.333,104.833 751.5,104.5C 753.185,102.983 754.685,101.316 756,99.5C 756.995,101.161 758.328,102.495 760,103.5C 760.945,103.095 761.612,102.428 762,101.5C 763.474,103.915 765.14,103.915 767,101.5C 772.022,103.005 777.189,104.005 782.5,104.5C 790.63,107.593 798.63,110.76 806.5,114C 805.207,114.49 803.873,114.657 802.5,114.5C 802.5,115.833 802.5,117.167 802.5,118.5C 801.167,118.5 799.833,118.5 798.5,118.5C 798.5,120.167 798.5,121.833 798.5,123.5C 802.349,123.051 805.849,121.717 809,119.5C 810.138,119.989 811.305,120.322 812.5,120.5 Z"/></g>
<g><path style="opacity:1" fill="#f1824a" d="M 415.5,76.5 C 451.449,88.7052 487.449,100.705 523.5,112.5C 592.436,136.368 661.436,160.034 730.5,183.5C 722.386,187.209 714.052,190.542 705.5,193.5C 687.001,199.925 668.668,206.592 650.5,213.5C 625.929,221.799 601.596,230.466 577.5,239.5C 564.556,244.037 551.556,248.37 538.5,252.5C 531.707,243.637 524.874,234.637 518,225.5C 483.613,175.953 449.446,126.286 415.5,76.5 Z"/></g>
<g><path style="opacity:0.115" fill="#fdfcf7" d="M 831.5,106.5 C 831.5,108.833 831.5,111.167 831.5,113.5C 811.956,130.543 791.956,147.043 771.5,163C 764.925,170.079 757.925,176.579 750.5,182.5C 752.864,184.096 755.53,185.262 758.5,186C 783,191.384 807.333,197.551 831.5,204.5C 831.5,205.833 831.5,207.167 831.5,208.5C 800.089,201.263 768.756,193.596 737.5,185.5C 743.766,179.571 750.099,173.571 756.5,167.5C 769.138,158.164 781.472,148.331 793.5,138C 800.03,132.301 806.363,126.467 812.5,120.5C 818.833,115.833 825.167,111.167 831.5,106.5 Z"/></g>
<g><path style="opacity:1" fill="#ba7548" d="M 414.5,75.5 C 415.167,75.5 415.5,75.8333 415.5,76.5C 449.446,126.286 483.613,175.953 518,225.5C 524.874,234.637 531.707,243.637 538.5,252.5C 536.5,253.5 534.5,254.5 532.5,255.5C 494.045,268.897 455.712,282.564 417.5,296.5C 416.833,296.5 416.167,296.5 415.5,296.5C 415.167,296.5 414.833,296.5 414.5,296.5C 414.5,252.5 414.5,208.5 414.5,164.5C 414.5,137.833 414.5,111.167 414.5,84.5C 414.5,81.5 414.5,78.5 414.5,75.5 Z"/></g>
<g><path style="opacity:1" fill="#263e6a" d="M 302.5,113.5 C 300.132,116.106 297.299,118.106 294,119.5C 291.973,119.014 289.807,119.014 287.5,119.5C 287.33,120.822 287.663,121.989 288.5,123C 284.95,122.91 281.283,123.076 277.5,123.5C 277.5,124.833 277.5,126.167 277.5,127.5C 272.938,127.106 268.271,127.106 263.5,127.5C 263.167,127.5 262.833,127.5 262.5,127.5C 275.673,122.663 289.006,117.997 302.5,113.5 Z"/></g>
<g><path style="opacity:1" fill="#f24632" d="M 256.5,129.5 C 257.833,129.5 259.167,129.5 260.5,129.5C 259.538,149.203 258.205,168.703 256.5,188C 218.825,187.927 181.158,187.094 143.5,185.5C 136.167,185.667 128.833,185.833 121.5,186C 121,186.5 120.5,187 120,187.5C 115.455,185.267 110.621,183.933 105.5,183.5C 105.291,182.914 104.957,182.414 104.5,182C 108.167,181 111.833,180 115.5,179C 116.056,178.617 116.389,178.117 116.5,177.5C 116.5,177.167 116.5,176.833 116.5,176.5C 143.924,167.359 171.257,158.026 198.5,148.5C 217.714,141.862 237.047,135.528 256.5,129.5 Z"/></g>
<g><path style="opacity:0.041" fill="#fdfcf8" d="M -0.5,105.5 C 30.5416,131.877 61.8749,157.877 93.5,183.5C 93.2089,184.649 92.3756,185.316 91,185.5C 72.9624,189.945 54.7957,194.445 36.5,199C 35.3279,199.419 34.3279,200.085 33.5,201C 21.949,202.906 10.6157,205.406 -0.5,208.5C -0.5,207.167 -0.5,205.833 -0.5,204.5C 26.9866,197.136 54.6533,189.636 82.5,182C 54.3772,159.71 26.7105,136.876 -0.5,113.5C -0.5,110.833 -0.5,108.167 -0.5,105.5 Z"/></g>
<g><path style="opacity:1" fill="#1b2958" d="M 414.5,84.5 C 414.5,111.167 414.5,137.833 414.5,164.5C 413.669,178.327 413.169,192.327 413,206.5C 411.585,215.489 410.418,224.489 409.5,233.5C 406.5,233.167 405.167,234.5 405.5,237.5C 402.802,237.55 400.636,236.55 399,234.5C 397.5,236 396,237.5 394.5,239C 395.554,240.388 395.72,241.888 395,243.5C 394.085,242.672 393.419,241.672 393,240.5C 392.154,244.775 390.821,248.442 389,251.5C 388.667,251.833 388.333,252.167 388,252.5C 387.667,251.5 387.333,250.5 387,249.5C 386.774,252.095 386.274,254.595 385.5,257C 386.443,259.8 386.276,262.634 385,265.5C 384.333,262.833 383.667,262.833 383,265.5C 382.506,267.134 382.34,268.801 382.5,270.5C 379.074,270.35 378.741,271.516 381.5,274C 380.003,275.871 378.003,276.871 375.5,277C 376.833,277.667 376.833,278.333 375.5,279C 376.549,279.492 377.549,279.326 378.5,278.5C 379.696,278.846 379.696,279.346 378.5,280C 376.19,280.497 373.857,280.663 371.5,280.5C 361.876,277.738 352.543,274.405 343.5,270.5C 346.247,270.813 348.914,270.48 351.5,269.5C 349.009,268.459 349.009,267.626 351.5,267C 351.167,266.667 350.833,266.333 350.5,266C 352.283,264.933 352.783,263.433 352,261.5C 349.934,264.298 348.434,263.965 347.5,260.5C 350.212,257.869 352.212,255.203 353.5,252.5C 353.291,251.914 352.957,251.414 352.5,251C 355.325,249.035 358.325,247.201 361.5,245.5C 363.003,244.41 363.336,243.243 362.5,242C 364.744,239.651 365.911,240.151 366,243.5C 366.309,242.234 366.809,241.067 367.5,240C 367.167,239.667 366.833,239.333 366.5,239C 368.973,237.439 370.973,235.439 372.5,233C 374.888,232.697 377.055,231.863 379,230.5C 379.324,232.569 380.158,232.902 381.5,231.5C 382.216,229.518 383.383,227.851 385,226.5C 385.333,221.833 385.667,217.167 386,212.5C 386.9,211.23 388.066,210.23 389.5,209.5C 388.798,207.224 388.965,204.891 390,202.5C 391.494,200.671 392.994,198.838 394.5,197C 391.875,194.296 392.375,192.129 396,190.5C 397.452,192.825 399.119,192.825 401,190.5C 401.617,189.551 401.451,188.718 400.5,188C 404.841,185.32 407.674,181.486 409,176.5C 409.333,177.833 409.667,179.167 410,180.5C 411.219,169.855 412.219,159.188 413,148.5C 413.168,126.996 413.668,105.663 414.5,84.5 Z"/></g>
<g><path style="opacity:0.995" fill="#fee1ad" d="M 93.5,183.5 C 95.3881,184.275 97.3881,184.275 99.5,183.5C 123.792,191.595 147.792,200.262 171.5,209.5C 170.942,210.79 169.942,211.623 168.5,212C 173.591,213.32 178.591,214.487 183.5,215.5C 184.167,218.167 184.833,220.833 185.5,223.5C 177.64,223.058 169.973,221.724 162.5,219.5C 162.657,218.127 162.49,216.793 162,215.5C 160.667,218.167 159.333,218.167 158,215.5C 156.925,217.575 155.259,218.908 153,219.5C 149.571,218.268 146.071,217.268 142.5,216.5C 141.478,215.646 140.645,214.646 140,213.5C 139.612,214.428 138.945,215.095 138,215.5C 135.49,214.342 132.823,213.675 130,213.5C 126.296,213.967 122.63,214.634 119,215.5C 117.019,215.371 115.353,214.704 114,213.5C 112.526,215.915 110.86,215.915 109,213.5C 105.135,215.067 101.302,216.734 97.5,218.5C 90.196,218.945 83.0293,219.945 76,221.5C 74.2399,220.37 72.4066,219.37 70.5,218.5C 59.5942,215.937 48.5942,215.27 37.5,216.5C 34.4871,217.133 31.6538,218.133 29,219.5C 27.05,217.429 24.8833,217.095 22.5,218.5C 20.057,216.945 17.3903,216.278 14.5,216.5C 9.21073,215.65 4.21073,213.983 -0.5,211.5C -0.5,210.5 -0.5,209.5 -0.5,208.5C 10.6157,205.406 21.949,202.906 33.5,201C 34.3279,200.085 35.3279,199.419 36.5,199C 54.7957,194.445 72.9624,189.945 91,185.5C 92.3756,185.316 93.2089,184.649 93.5,183.5 Z"/></g>
<g><path style="opacity:1" fill="#d73c2e" d="M 261.5,127.5 C 261.285,165.168 260.952,202.835 260.5,240.5C 230.758,230.364 201.092,220.031 171.5,209.5C 147.792,200.262 123.792,191.595 99.5,183.5C 104.633,180.342 110.3,178.342 116.5,177.5C 116.389,178.117 116.056,178.617 115.5,179C 111.833,180 108.167,181 104.5,182C 104.957,182.414 105.291,182.914 105.5,183.5C 110.621,183.933 115.455,185.267 120,187.5C 120.5,187 121,186.5 121.5,186C 128.833,185.833 136.167,185.667 143.5,185.5C 181.158,187.094 218.825,187.927 256.5,188C 258.205,168.703 259.538,149.203 260.5,129.5C 259.167,129.5 257.833,129.5 256.5,129.5C 257.93,128.463 259.597,127.796 261.5,127.5 Z"/></g>
<g><path style="opacity:0.995" fill="#fed999" d="M 730.5,183.5 C 732.965,183.767 735.299,184.434 737.5,185.5C 768.756,193.596 800.089,201.263 831.5,208.5C 831.5,209.167 831.5,209.833 831.5,210.5C 826.215,213.541 820.549,215.708 814.5,217C 813.833,217.667 813.167,218.333 812.5,219C 790.545,226.532 768.878,234.365 747.5,242.5C 745.208,242.244 743.041,242.577 741,243.5C 737.793,242.745 736.293,240.745 736.5,237.5C 735.448,237.351 734.448,237.517 733.5,238C 734.973,238.71 735.64,239.876 735.5,241.5C 733.633,241.045 731.8,240.378 730,239.5C 726.799,240.238 725.299,242.238 725.5,245.5C 723.408,245.561 721.908,246.561 721,248.5C 720.667,248.167 720.333,247.833 720,247.5C 719.692,248.308 719.192,248.975 718.5,249.5C 717.575,248.359 716.741,248.359 716,249.5C 713.952,244.66 713.452,239.66 714.5,234.5C 720.7,233.823 725.867,231.156 730,226.5C 730.945,226.905 731.612,227.572 732,228.5C 732.833,223.901 733.333,219.567 733.5,215.5C 732.729,213.229 731.729,211.062 730.5,209C 731.378,207.2 732.045,205.367 732.5,203.5C 729.921,203.917 727.754,203.25 726,201.5C 725.326,202.578 724.326,203.245 723,203.5C 720.943,202.203 718.776,201.703 716.5,202C 716.833,202.333 717.167,202.667 717.5,203C 716.475,205.071 715.642,207.238 715,209.5C 714.857,205.381 714.19,201.381 713,197.5C 712.549,199.929 711.715,200.096 710.5,198C 711.524,196.633 711.024,195.8 709,195.5C 707.674,196.799 706.34,198.132 705,199.5C 704.5,197.667 703.333,196.5 701.5,196C 703.32,195.8 704.653,194.966 705.5,193.5C 714.052,190.542 722.386,187.209 730.5,183.5 Z"/></g>
<g><path style="opacity:1" fill="#fedc9f" d="M 705.5,193.5 C 704.653,194.966 703.32,195.8 701.5,196C 703.333,196.5 704.5,197.667 705,199.5C 706.34,198.132 707.674,196.799 709,195.5C 711.024,195.8 711.524,196.633 710.5,198C 711.715,200.096 712.549,199.929 713,197.5C 714.19,201.381 714.857,205.381 715,209.5C 715.642,207.238 716.475,205.071 717.5,203C 717.167,202.667 716.833,202.333 716.5,202C 718.776,201.703 720.943,202.203 723,203.5C 724.326,203.245 725.326,202.578 726,201.5C 727.754,203.25 729.921,203.917 732.5,203.5C 732.045,205.367 731.378,207.2 730.5,209C 731.729,211.062 732.729,213.229 733.5,215.5C 733.333,219.567 732.833,223.901 732,228.5C 731.612,227.572 730.945,226.905 730,226.5C 725.867,231.156 720.7,233.823 714.5,234.5C 713.452,239.66 713.952,244.66 716,249.5C 716.741,248.359 717.575,248.359 718.5,249.5C 719.192,248.975 719.692,248.308 720,247.5C 720.333,247.833 720.667,248.167 721,248.5C 721.908,246.561 723.408,245.561 725.5,245.5C 725.299,242.238 726.799,240.238 730,239.5C 731.8,240.378 733.633,241.045 735.5,241.5C 735.64,239.876 734.973,238.71 733.5,238C 734.448,237.517 735.448,237.351 736.5,237.5C 736.293,240.745 737.793,242.745 741,243.5C 743.041,242.577 745.208,242.244 747.5,242.5C 747.5,242.833 747.5,243.167 747.5,243.5C 745.447,243.402 743.78,244.069 742.5,245.5C 722.241,252.697 701.908,259.697 681.5,266.5C 677.471,266.149 673.638,266.815 670,268.5C 669.228,268.355 668.561,268.022 668,267.5C 663.246,269.12 658.413,270.62 653.5,272C 650.983,274.251 647.983,275.084 644.5,274.5C 646.129,269.312 647.129,263.979 647.5,258.5C 648.822,258.67 649.989,258.337 651,257.5C 652.085,258.293 653.252,258.96 654.5,259.5C 659.482,258.173 664.149,256.173 668.5,253.5C 671.325,242.269 671.825,230.936 670,219.5C 669.51,220.793 669.343,222.127 669.5,223.5C 668.5,223.5 667.5,223.5 666.5,223.5C 666.421,222.07 666.754,220.736 667.5,219.5C 666.183,219.687 664.85,219.02 663.5,217.5C 662.41,218.727 661.076,219.56 659.5,220C 660.167,220.333 660.833,220.667 661.5,221C 658.116,222.855 655.283,224.688 653,226.5C 651.654,223.751 650.32,223.417 649,225.5C 648.286,222.525 647.452,220.025 646.5,218C 648.081,217.293 649.581,216.46 651,215.5C 651.805,217.901 652.638,217.734 653.5,215C 654.738,215.077 655.738,214.911 656.5,214.5C 654.604,213.534 652.604,213.201 650.5,213.5C 668.668,206.592 687.001,199.925 705.5,193.5 Z"/></g>
<g><path style="opacity:1" fill="#4e2643" d="M 262.5,127.5 C 262.833,127.5 263.167,127.5 263.5,127.5C 263.5,163.167 263.5,198.833 263.5,234.5C 263.5,236.833 263.5,239.167 263.5,241.5C 262.508,241.672 261.842,241.338 261.5,240.5C 262.475,202.857 262.809,165.191 262.5,127.5 Z"/></g>
<g><path style="opacity:1" fill="#19376f" d="M 396.5,115.5 C 393.495,123.671 389.995,131.671 386,139.5C 385.667,157.167 385.333,174.833 385,192.5C 383.982,197.681 381.982,202.347 379,206.5C 378.086,205.346 377.253,205.513 376.5,207C 377.641,207.741 377.641,208.575 376.5,209.5C 374.376,210.458 372.376,211.625 370.5,213C 372.686,213.604 372.852,214.77 371,216.5C 370.667,215.833 370.333,215.167 370,214.5C 368.833,215.667 367.667,216.833 366.5,218C 366.833,218.333 367.167,218.667 367.5,219C 365.833,220 364.167,221 362.5,222C 356.596,222.53 350.763,222.03 345,220.5C 343.893,220.585 342.893,220.919 342,221.5C 341.311,220.643 340.478,219.977 339.5,219.5C 337.997,220.052 336.331,220.052 334.5,219.5C 334.66,221.199 334.494,222.866 334,224.5C 333.29,223.027 332.124,222.36 330.5,222.5C 330.36,224.124 331.027,225.29 332.5,226C 330.679,228.456 330.012,231.289 330.5,234.5C 328.396,234.201 326.396,234.534 324.5,235.5C 322.013,237.809 320.013,240.476 318.5,243.5C 317.311,244.429 315.978,244.762 314.5,244.5C 314.449,246.57 315.115,248.403 316.5,250C 316.095,250.945 315.428,251.612 314.5,252C 317.167,252.667 317.167,253.333 314.5,254C 315.907,255.452 317.407,255.285 319,253.5C 319.167,253.833 319.333,254.167 319.5,254.5C 318.335,255.584 317.002,256.417 315.5,257C 315.833,257.333 316.167,257.667 316.5,258C 314.833,258.667 313.167,258.667 311.5,258C 312.451,257.282 312.617,256.449 312,255.5C 309.619,256.435 307.119,256.768 304.5,256.5C 290.54,252.071 276.873,247.071 263.5,241.5C 263.5,239.167 263.5,236.833 263.5,234.5C 265.157,221.525 266.157,208.192 266.5,194.5C 272.591,196.19 278.591,198.19 284.5,200.5C 285.192,199.975 285.692,199.308 286,198.5C 286.374,199.416 286.874,200.25 287.5,201C 300.883,204.904 314.216,208.738 327.5,212.5C 329.197,212.101 330.863,211.601 332.5,211C 348.522,195.998 364.855,180.665 381.5,165C 382.167,163 382.833,161 383.5,159C 383.241,157.739 382.574,156.739 381.5,156C 382.416,155.626 383.25,155.126 384,154.5C 384.167,152.167 384.333,149.833 384.5,147.5C 384.426,144.713 383.76,142.213 382.5,140C 385.064,138.471 386.23,136.305 386,133.5C 384.913,135.932 384.413,135.598 384.5,132.5C 385.822,132.67 386.989,132.337 388,131.5C 390.334,126.23 392.667,120.564 395,114.5C 395.383,115.056 395.883,115.389 396.5,115.5 Z"/></g>
<g><path style="opacity:1" fill="#c04237" d="M 261.5,127.5 C 261.833,127.5 262.167,127.5 262.5,127.5C 262.809,165.191 262.475,202.857 261.5,240.5C 261.167,240.5 260.833,240.5 260.5,240.5C 260.952,202.835 261.285,165.168 261.5,127.5 Z"/></g>
<g><path style="opacity:0.051" fill="#fefdfd" d="M -0.5,211.5 C 4.21073,213.983 9.21073,215.65 14.5,216.5C 35.4168,225.419 56.7501,233.752 78.5,241.5C 79.287,243.104 80.6203,243.771 82.5,243.5C 82.7251,339.414 82.3918,435.247 81.5,531C 82.203,534.496 82.8697,537.996 83.5,541.5C 81.8958,542.287 81.2291,543.62 81.5,545.5C 80.7356,543.26 79.9023,540.927 79,538.5C 78.6667,441.833 78.3333,345.167 78,248.5C 74.6103,246.554 71.1103,244.721 67.5,243C 44.6555,234.996 21.9889,226.496 -0.5,217.5C -0.5,215.5 -0.5,213.5 -0.5,211.5 Z"/></g>
<g><path style="opacity:1" fill="#fee2b2" d="M 171.5,209.5 C 201.092,220.031 230.758,230.364 260.5,240.5C 260.833,240.5 261.167,240.5 261.5,240.5C 261.842,241.338 262.508,241.672 263.5,241.5C 276.873,247.071 290.54,252.071 304.5,256.5C 313.833,260.167 323.167,263.833 332.5,267.5C 332.856,268.87 333.69,269.87 335,270.5C 341.08,271.224 346.08,273.891 350,278.5C 350.333,278.167 350.667,277.833 351,277.5C 355.617,279.297 360.117,281.297 364.5,283.5C 367.675,282.613 369.342,283.946 369.5,287.5C 366.436,287.072 363.436,286.406 360.5,285.5C 360.178,282.188 358.845,282.188 356.5,285.5C 354.677,286.747 352.677,287.414 350.5,287.5C 350.5,286.5 350.5,285.5 350.5,284.5C 351.873,284.657 353.207,284.49 354.5,284C 349.365,284.08 344.531,283.247 340,281.5C 339.51,282.793 339.343,284.127 339.5,285.5C 327.09,283.903 314.757,281.57 302.5,278.5C 294.167,277.167 285.833,277.167 277.5,278.5C 272.942,279.446 268.942,281.446 265.5,284.5C 260.868,285.328 256.202,285.828 251.5,286C 247.771,290.483 244.771,289.983 242.5,284.5C 244.2,284.626 245.7,285.293 247,286.5C 248.171,285.66 249.338,284.827 250.5,284C 242.684,282.414 235.851,284.247 230,289.5C 227,286.833 224,284.167 221,281.5C 217.49,282.832 214.657,284.999 212.5,288C 214.708,289.047 216.374,290.547 217.5,292.5C 176.167,277.5 134.833,262.5 93.5,247.5C 91.1617,245.96 88.4951,245.294 85.5,245.5C 85.5,254.167 85.5,262.833 85.5,271.5C 85.5,361.167 85.5,450.833 85.5,540.5C 88.0821,540.025 90.0821,540.692 91.5,542.5C 89.2362,541.781 86.9029,541.448 84.5,541.5C 84.5,441.833 84.5,342.167 84.5,242.5C 82.4352,242.483 80.4352,242.15 78.5,241.5C 56.7501,233.752 35.4168,225.419 14.5,216.5C 17.3903,216.278 20.057,216.945 22.5,218.5C 24.8833,217.095 27.05,217.429 29,219.5C 31.6538,218.133 34.4871,217.133 37.5,216.5C 48.5942,215.27 59.5942,215.937 70.5,218.5C 72.4066,219.37 74.2399,220.37 76,221.5C 83.0293,219.945 90.196,218.945 97.5,218.5C 101.302,216.734 105.135,215.067 109,213.5C 110.86,215.915 112.526,215.915 114,213.5C 115.353,214.704 117.019,215.371 119,215.5C 122.63,214.634 126.296,213.967 130,213.5C 132.823,213.675 135.49,214.342 138,215.5C 138.945,215.095 139.612,214.428 140,213.5C 140.645,214.646 141.478,215.646 142.5,216.5C 146.071,217.268 149.571,218.268 153,219.5C 155.259,218.908 156.925,217.575 158,215.5C 159.333,218.167 160.667,218.167 162,215.5C 162.49,216.793 162.657,218.127 162.5,219.5C 169.973,221.724 177.64,223.058 185.5,223.5C 184.833,220.833 184.167,218.167 183.5,215.5C 178.591,214.487 173.591,213.32 168.5,212C 169.942,211.623 170.942,210.79 171.5,209.5 Z"/></g>
<g><path style="opacity:0.045" fill="#fcfefa" d="M 831.5,210.5 C 831.5,212.833 831.5,215.167 831.5,217.5C 805.499,227.878 779.332,237.878 753,247.5C 752.831,346.57 752.331,445.57 751.5,544.5C 750.389,522.722 750.389,500.722 751.5,478.5C 750.167,478.5 748.833,478.5 747.5,478.5C 747.5,400.167 747.5,321.833 747.5,243.5C 747.5,243.167 747.5,242.833 747.5,242.5C 768.878,234.365 790.545,226.532 812.5,219C 813.167,218.333 813.833,217.667 814.5,217C 820.549,215.708 826.215,213.541 831.5,210.5 Z"/></g>
<g><path style="opacity:1" fill="#fddea5" d="M 650.5,213.5 C 652.604,213.201 654.604,213.534 656.5,214.5C 655.738,214.911 654.738,215.077 653.5,215C 652.638,217.734 651.805,217.901 651,215.5C 649.581,216.46 648.081,217.293 646.5,218C 647.452,220.025 648.286,222.525 649,225.5C 650.32,223.417 651.654,223.751 653,226.5C 655.283,224.688 658.116,222.855 661.5,221C 660.833,220.667 660.167,220.333 659.5,220C 661.076,219.56 662.41,218.727 663.5,217.5C 664.85,219.02 666.183,219.687 667.5,219.5C 666.754,220.736 666.421,222.07 666.5,223.5C 667.5,223.5 668.5,223.5 669.5,223.5C 669.343,222.127 669.51,220.793 670,219.5C 671.825,230.936 671.325,242.269 668.5,253.5C 664.149,256.173 659.482,258.173 654.5,259.5C 653.252,258.96 652.085,258.293 651,257.5C 649.989,258.337 648.822,258.67 647.5,258.5C 647.129,263.979 646.129,269.312 644.5,274.5C 647.983,275.084 650.983,274.251 653.5,272C 658.413,270.62 663.246,269.12 668,267.5C 668.561,268.022 669.228,268.355 670,268.5C 673.638,266.815 677.471,266.149 681.5,266.5C 661.5,274.167 641.5,281.833 621.5,289.5C 621.167,289.5 620.833,289.5 620.5,289.5C 615.406,290.88 610.406,292.547 605.5,294.5C 606.007,293.141 607.007,292.141 608.5,291.5C 607.443,291.094 606.109,291.094 604.5,291.5C 604.376,278.063 605.042,264.563 606.5,251C 605.663,249.989 605.33,248.822 605.5,247.5C 603.61,247.703 602.11,247.037 601,245.5C 599.898,248.596 597.898,251.596 595,254.5C 594.5,253.333 593.667,252.5 592.5,252C 592.833,251.667 593.167,251.333 593.5,251C 590.568,249.886 587.734,249.386 585,249.5C 584.405,251.881 583.905,253.881 583.5,255.5C 584.411,251.205 582.577,248.538 578,247.5C 575.303,249.493 572.47,249.326 569.5,247C 573.791,247.208 577.458,245.875 580.5,243C 579.833,242.667 579.167,242.333 578.5,242C 583.775,240.045 583.442,239.212 577.5,239.5C 601.596,230.466 625.929,221.799 650.5,213.5 Z"/></g>
<g><path style="opacity:1" fill="#1a3063" d="M 413.5,75.5 C 413.833,75.5 414.167,75.5 414.5,75.5C 414.5,78.5 414.5,81.5 414.5,84.5C 413.668,105.663 413.168,126.996 413,148.5C 412.219,159.188 411.219,169.855 410,180.5C 409.667,179.167 409.333,177.833 409,176.5C 407.674,181.486 404.841,185.32 400.5,188C 401.451,188.718 401.617,189.551 401,190.5C 399.119,192.825 397.452,192.825 396,190.5C 392.375,192.129 391.875,194.296 394.5,197C 392.994,198.838 391.494,200.671 390,202.5C 388.965,204.891 388.798,207.224 389.5,209.5C 388.066,210.23 386.9,211.23 386,212.5C 385.667,217.167 385.333,221.833 385,226.5C 383.383,227.851 382.216,229.518 381.5,231.5C 380.158,232.902 379.324,232.569 379,230.5C 377.055,231.863 374.888,232.697 372.5,233C 370.973,235.439 368.973,237.439 366.5,239C 366.833,239.333 367.167,239.667 367.5,240C 366.809,241.067 366.309,242.234 366,243.5C 365.911,240.151 364.744,239.651 362.5,242C 363.336,243.243 363.003,244.41 361.5,245.5C 358.325,247.201 355.325,249.035 352.5,251C 352.957,251.414 353.291,251.914 353.5,252.5C 352.212,255.203 350.212,257.869 347.5,260.5C 348.434,263.965 349.934,264.298 352,261.5C 352.783,263.433 352.283,264.933 350.5,266C 350.833,266.333 351.167,266.667 351.5,267C 349.009,267.626 349.009,268.459 351.5,269.5C 348.914,270.48 346.247,270.813 343.5,270.5C 339.777,269.653 336.111,268.653 332.5,267.5C 323.167,263.833 313.833,260.167 304.5,256.5C 307.119,256.768 309.619,256.435 312,255.5C 312.617,256.449 312.451,257.282 311.5,258C 313.167,258.667 314.833,258.667 316.5,258C 316.167,257.667 315.833,257.333 315.5,257C 317.002,256.417 318.335,255.584 319.5,254.5C 319.333,254.167 319.167,253.833 319,253.5C 317.407,255.285 315.907,255.452 314.5,254C 317.167,253.333 317.167,252.667 314.5,252C 315.428,251.612 316.095,250.945 316.5,250C 315.115,248.403 314.449,246.57 314.5,244.5C 315.978,244.762 317.311,244.429 318.5,243.5C 320.013,240.476 322.013,237.809 324.5,235.5C 326.396,234.534 328.396,234.201 330.5,234.5C 330.012,231.289 330.679,228.456 332.5,226C 331.027,225.29 330.36,224.124 330.5,222.5C 332.124,222.36 333.29,223.027 334,224.5C 334.494,222.866 334.66,221.199 334.5,219.5C 336.331,220.052 337.997,220.052 339.5,219.5C 340.478,219.977 341.311,220.643 342,221.5C 342.893,220.919 343.893,220.585 345,220.5C 350.763,222.03 356.596,222.53 362.5,222C 364.167,221 365.833,220 367.5,219C 367.167,218.667 366.833,218.333 366.5,218C 367.667,216.833 368.833,215.667 370,214.5C 370.333,215.167 370.667,215.833 371,216.5C 372.852,214.77 372.686,213.604 370.5,213C 372.376,211.625 374.376,210.458 376.5,209.5C 377.641,208.575 377.641,207.741 376.5,207C 377.253,205.513 378.086,205.346 379,206.5C 381.982,202.347 383.982,197.681 385,192.5C 385.333,174.833 385.667,157.167 386,139.5C 389.995,131.671 393.495,123.671 396.5,115.5C 398.07,112.686 399.403,109.686 400.5,106.5C 403.478,98.2057 407.312,90.2057 412,82.5C 412.494,80.8659 412.66,79.1992 412.5,77.5C 411.5,77.5 410.5,77.5 409.5,77.5C 410.671,76.6554 412.005,75.9887 413.5,75.5 Z"/></g>
<g><path style="opacity:1" fill="#171f49" d="M 414.5,164.5 C 414.5,208.5 414.5,252.5 414.5,296.5C 399.995,291.405 385.661,286.071 371.5,280.5C 373.857,280.663 376.19,280.497 378.5,280C 379.696,279.346 379.696,278.846 378.5,278.5C 377.549,279.326 376.549,279.492 375.5,279C 376.833,278.333 376.833,277.667 375.5,277C 378.003,276.871 380.003,275.871 381.5,274C 378.741,271.516 379.074,270.35 382.5,270.5C 382.34,268.801 382.506,267.134 383,265.5C 383.667,262.833 384.333,262.833 385,265.5C 386.276,262.634 386.443,259.8 385.5,257C 386.274,254.595 386.774,252.095 387,249.5C 387.333,250.5 387.667,251.5 388,252.5C 388.333,252.167 388.667,251.833 389,251.5C 390.821,248.442 392.154,244.775 393,240.5C 393.419,241.672 394.085,242.672 395,243.5C 395.72,241.888 395.554,240.388 394.5,239C 396,237.5 397.5,236 399,234.5C 400.636,236.55 402.802,237.55 405.5,237.5C 405.167,234.5 406.5,233.167 409.5,233.5C 410.418,224.489 411.585,215.489 413,206.5C 413.169,192.327 413.669,178.327 414.5,164.5 Z"/></g>
<g><path style="opacity:1" fill="#fee0aa" d="M 577.5,239.5 C 583.442,239.212 583.775,240.045 578.5,242C 579.167,242.333 579.833,242.667 580.5,243C 577.458,245.875 573.791,247.208 569.5,247C 572.47,249.326 575.303,249.493 578,247.5C 582.577,248.538 584.411,251.205 583.5,255.5C 583.905,253.881 584.405,251.881 585,249.5C 587.734,249.386 590.568,249.886 593.5,251C 593.167,251.333 592.833,251.667 592.5,252C 593.667,252.5 594.5,253.333 595,254.5C 597.898,251.596 599.898,248.596 601,245.5C 602.11,247.037 603.61,247.703 605.5,247.5C 605.33,248.822 605.663,249.989 606.5,251C 605.042,264.563 604.376,278.063 604.5,291.5C 606.109,291.094 607.443,291.094 608.5,291.5C 607.007,292.141 606.007,293.141 605.5,294.5C 585.029,302.221 564.363,309.721 543.5,317C 540.5,317.667 537.5,317.667 534.5,317C 526.398,315.278 518.398,313.778 510.5,312.5C 518.86,312.169 527.193,312.502 535.5,313.5C 538.846,315.989 539.18,315.489 536.5,312C 536.905,311.055 537.572,310.388 538.5,310C 535.898,307.458 533.065,305.292 530,303.5C 529.29,304.973 528.124,305.64 526.5,305.5C 527.609,301.391 530.275,299.058 534.5,298.5C 534.5,296.5 534.5,294.5 534.5,292.5C 536.167,292.5 537.833,292.5 539.5,292.5C 540.698,286.388 540.698,285.388 539.5,289.5C 537.182,289.343 535.516,288.176 534.5,286C 534.905,285.055 535.572,284.388 536.5,284C 534.889,281.958 533.389,279.791 532,277.5C 531.51,278.793 531.343,280.127 531.5,281.5C 528.158,280.988 526.324,278.988 526,275.5C 524.064,277.808 523.231,280.475 523.5,283.5C 522.5,283.5 521.5,283.5 520.5,283.5C 519.989,279.97 520.656,276.804 522.5,274C 520.808,272.599 520.141,270.766 520.5,268.5C 525.5,267.997 525.167,267.664 519.5,267.5C 519.5,269.5 519.5,271.5 519.5,273.5C 514.474,274.007 509.474,274.674 504.5,275.5C 505.673,271.496 508.34,268.996 512.5,268C 511.044,267.577 510.544,266.744 511,265.5C 512.356,264.62 513.856,264.286 515.5,264.5C 515.833,269.833 516.167,269.833 516.5,264.5C 519.67,265.667 522.503,265.001 525,262.5C 526,262.833 527,263.167 528,263.5C 528.617,262.551 528.451,261.718 527.5,261C 529.112,260.28 530.612,260.446 532,261.5C 532.75,260.874 533.584,260.374 534.5,260C 534.167,259.667 533.833,259.333 533.5,259C 535.167,258.667 536.833,258.333 538.5,258C 535.409,257.96 533.409,257.127 532.5,255.5C 534.5,254.5 536.5,253.5 538.5,252.5C 551.556,248.37 564.556,244.037 577.5,239.5 Z"/></g>
<g><path style="opacity:0.996" fill="#f8bd7f" d="M 93.5,247.5 C 119.385,267.435 146.052,287.269 173.5,307C 177.359,310.032 181.026,313.198 184.5,316.5C 151.315,301.738 118.315,286.738 85.5,271.5C 85.5,262.833 85.5,254.167 85.5,245.5C 88.4951,245.294 91.1617,245.96 93.5,247.5 Z"/></g>
<g><path style="opacity:1" fill="#0e738b" d="M 742.5,245.5 C 743.5,245.5 744.5,245.5 745.5,245.5C 745.389,246.117 745.056,246.617 744.5,247C 742.527,247.495 740.527,247.662 738.5,247.5C 738.5,248.5 738.5,249.5 738.5,250.5C 735.984,250.755 733.65,251.589 731.5,253C 696.741,279.689 661.741,305.856 626.5,331.5C 625.5,331.833 624.833,332.5 624.5,333.5C 623.391,333.557 622.391,333.89 621.5,334.5C 621.5,319.5 621.5,304.5 621.5,289.5C 641.5,281.833 661.5,274.167 681.5,266.5C 701.908,259.697 722.241,252.697 742.5,245.5 Z"/></g>
<g><path style="opacity:1" fill="#fee1af" d="M 532.5,255.5 C 533.409,257.127 535.409,257.96 538.5,258C 536.833,258.333 535.167,258.667 533.5,259C 533.833,259.333 534.167,259.667 534.5,260C 533.584,260.374 532.75,260.874 532,261.5C 530.612,260.446 529.112,260.28 527.5,261C 528.451,261.718 528.617,262.551 528,263.5C 527,263.167 526,262.833 525,262.5C 522.503,265.001 519.67,265.667 516.5,264.5C 516.167,269.833 515.833,269.833 515.5,264.5C 513.856,264.286 512.356,264.62 511,265.5C 510.544,266.744 511.044,267.577 512.5,268C 508.34,268.996 505.673,271.496 504.5,275.5C 509.474,274.674 514.474,274.007 519.5,273.5C 519.5,271.5 519.5,269.5 519.5,267.5C 525.167,267.664 525.5,267.997 520.5,268.5C 520.141,270.766 520.808,272.599 522.5,274C 520.656,276.804 519.989,279.97 520.5,283.5C 521.5,283.5 522.5,283.5 523.5,283.5C 523.231,280.475 524.064,277.808 526,275.5C 526.324,278.988 528.158,280.988 531.5,281.5C 531.343,280.127 531.51,278.793 532,277.5C 533.389,279.791 534.889,281.958 536.5,284C 535.572,284.388 534.905,285.055 534.5,286C 535.516,288.176 537.182,289.343 539.5,289.5C 540.698,285.388 540.698,286.388 539.5,292.5C 537.833,292.5 536.167,292.5 534.5,292.5C 534.5,294.5 534.5,296.5 534.5,298.5C 530.275,299.058 527.609,301.391 526.5,305.5C 528.124,305.64 529.29,304.973 530,303.5C 533.065,305.292 535.898,307.458 538.5,310C 537.572,310.388 536.905,311.055 536.5,312C 539.18,315.489 538.846,315.989 535.5,313.5C 527.193,312.502 518.86,312.169 510.5,312.5C 486.168,308.722 461.835,305.056 437.5,301.5C 430.758,300.148 424.091,298.481 417.5,296.5C 455.712,282.564 494.045,268.897 532.5,255.5 Z"/></g>
<g><path style="opacity:1" fill="#fee3b7" d="M 332.5,267.5 C 336.111,268.653 339.777,269.653 343.5,270.5C 352.543,274.405 361.876,277.738 371.5,280.5C 385.661,286.071 399.995,291.405 414.5,296.5C 414.833,296.5 415.167,296.5 415.5,296.5C 414.5,297.167 413.5,297.833 412.5,298.5C 410.585,298.216 408.919,298.549 407.5,299.5C 385.106,302.461 362.772,305.794 340.5,309.5C 338.708,309.366 337.042,309.699 335.5,310.5C 321.789,312.342 308.122,314.509 294.5,317C 291.167,317.667 287.833,317.667 284.5,317C 262.1,308.923 239.767,300.756 217.5,292.5C 216.374,290.547 214.708,289.047 212.5,288C 214.657,284.999 217.49,282.832 221,281.5C 224,284.167 227,286.833 230,289.5C 235.851,284.247 242.684,282.414 250.5,284C 249.338,284.827 248.171,285.66 247,286.5C 245.7,285.293 244.2,284.626 242.5,284.5C 244.771,289.983 247.771,290.483 251.5,286C 256.202,285.828 260.868,285.328 265.5,284.5C 268.942,281.446 272.942,279.446 277.5,278.5C 285.833,277.167 294.167,277.167 302.5,278.5C 314.757,281.57 327.09,283.903 339.5,285.5C 339.343,284.127 339.51,282.793 340,281.5C 344.531,283.247 349.365,284.08 354.5,284C 353.207,284.49 351.873,284.657 350.5,284.5C 350.5,285.5 350.5,286.5 350.5,287.5C 352.677,287.414 354.677,286.747 356.5,285.5C 358.845,282.188 360.178,282.188 360.5,285.5C 363.436,286.406 366.436,287.072 369.5,287.5C 369.342,283.946 367.675,282.613 364.5,283.5C 360.117,281.297 355.617,279.297 351,277.5C 350.667,277.833 350.333,278.167 350,278.5C 346.08,273.891 341.08,271.224 335,270.5C 333.69,269.87 332.856,268.87 332.5,267.5 Z"/></g>
<g><path style="opacity:1" fill="#fee19d" d="M 85.5,271.5 C 118.315,286.738 151.315,301.738 184.5,316.5C 188.635,319.069 192.968,321.403 197.5,323.5C 242.274,354.73 287.941,384.73 334.5,413.5C 334.5,442.5 334.5,471.5 334.5,500.5C 333.5,500.5 332.5,500.5 331.5,500.5C 330.391,500.443 329.391,500.11 328.5,499.5C 279.823,480.16 231.156,460.827 182.5,441.5C 181.22,440.069 179.553,439.402 177.5,439.5C 177.5,485.833 177.5,532.167 177.5,578.5C 169.94,575.891 162.274,573.558 154.5,571.5C 154.5,570.5 154.5,569.5 154.5,568.5C 144.287,564.65 133.953,560.983 123.5,557.5C 123.5,556.5 123.5,555.5 123.5,554.5C 118.612,553.099 113.612,551.932 108.5,551C 102.518,548.607 96.8515,545.774 91.5,542.5C 90.0821,540.692 88.0821,540.025 85.5,540.5C 85.5,450.833 85.5,361.167 85.5,271.5 Z"/></g>
<g><path style="opacity:0.999" fill="#158ba2" d="M 745.5,245.5 C 746.498,273.995 746.831,302.662 746.5,331.5C 745.362,323.33 744.362,314.997 743.5,306.5C 742.5,305.833 741.5,305.167 740.5,304.5C 738.88,307.058 737.38,307.058 736,304.5C 733.893,306.333 731.393,307.499 728.5,308C 719.606,309.118 710.939,310.952 702.5,313.5C 702.9,316.761 701.733,317.428 699,315.5C 695.849,316.093 692.682,316.593 689.5,317C 688.5,317.833 687.5,318.667 686.5,319.5C 676.906,320.238 667.573,321.905 658.5,324.5C 658.5,325.833 658.5,327.167 658.5,328.5C 656.226,328.715 654.059,329.382 652,330.5C 649.64,329.22 647.14,328.553 644.5,328.5C 644.5,329.5 644.5,330.5 644.5,331.5C 643.802,332.8 640.302,333.133 634,332.5C 633.085,331.672 632.419,330.672 632,329.5C 631.667,330.5 631.333,331.5 631,332.5C 629.47,333.636 628.137,334.636 627,335.5C 626.342,333.892 626.842,332.725 628.5,332C 627.906,331.536 627.239,331.369 626.5,331.5C 661.741,305.856 696.741,279.689 731.5,253C 733.65,251.589 735.984,250.755 738.5,250.5C 738.5,249.5 738.5,248.5 738.5,247.5C 740.527,247.662 742.527,247.495 744.5,247C 745.056,246.617 745.389,246.117 745.5,245.5 Z"/></g>
<g><path style="opacity:0.369" fill="#fefaed" d="M 78.5,241.5 C 80.4352,242.15 82.4352,242.483 84.5,242.5C 84.5,342.167 84.5,441.833 84.5,541.5C 84.1667,541.5 83.8333,541.5 83.5,541.5C 82.8697,537.996 82.203,534.496 81.5,531C 82.3918,435.247 82.7251,339.414 82.5,243.5C 80.6203,243.771 79.287,243.104 78.5,241.5 Z"/></g>
<g><path style="opacity:1" fill="#feb142" d="M 620.5,289.5 C 620.5,290.167 620.5,290.833 620.5,291.5C 619.167,308.32 618.5,325.487 618.5,343C 618.5,360.513 619.167,377.68 620.5,394.5C 620.5,394.833 620.5,395.167 620.5,395.5C 576.461,411.36 532.794,428.026 489.5,445.5C 489.167,445.5 488.833,445.5 488.5,445.5C 487.154,513.638 485.82,581.971 484.5,650.5C 480.519,651.997 476.519,653.497 472.5,655C 470.569,655.902 468.903,657.069 467.5,658.5C 451.611,664.687 435.611,670.687 419.5,676.5C 417.502,551.171 416.835,425.504 417.5,299.5C 424.063,301.047 430.73,301.714 437.5,301.5C 461.835,305.056 486.168,308.722 510.5,312.5C 518.398,313.778 526.398,315.278 534.5,317C 537.5,317.667 540.5,317.667 543.5,317C 564.363,309.721 585.029,302.221 605.5,294.5C 610.406,292.547 615.406,290.88 620.5,289.5 Z"/></g>
<g><path style="opacity:1" fill="#b23447" d="M 407.5,299.5 C 409.167,299.5 410.833,299.5 412.5,299.5C 412.291,300.922 411.791,302.255 411,303.5C 396.467,318.852 383.301,335.185 371.5,352.5C 361.44,366.01 350.94,379.01 340,391.5C 337.722,396.9 336.889,402.566 337.5,408.5C 336.833,408.5 336.5,408.167 336.5,407.5C 336.5,375.5 336.5,343.5 336.5,311.5C 338.483,311.843 339.817,311.176 340.5,309.5C 362.772,305.794 385.106,302.461 407.5,299.5 Z"/></g>
<g><path style="opacity:1" fill="#1791aa" d="M 746.5,331.5 C 746.5,332.167 746.5,332.833 746.5,333.5C 744.716,332.426 743.549,330.76 743,328.5C 742,329.833 741,331.167 740,332.5C 739.326,331.422 738.326,330.755 737,330.5C 732.49,331.279 727.99,332.113 723.5,333C 722.667,333.833 721.833,334.667 721,335.5C 715.419,333.867 709.919,334.7 704.5,338C 695.094,339.748 685.761,341.748 676.5,344C 672.186,347.489 667.686,349.989 663,351.5C 662,351.167 661,350.833 660,350.5C 657.595,351.274 655.095,351.774 652.5,352C 655.167,352.667 655.167,353.333 652.5,354C 647.557,354.252 642.724,355.086 638,356.5C 635.358,355.457 633.025,355.457 631,356.5C 628.727,354.108 626.56,354.108 624.5,356.5C 623.202,348.776 623.202,341.109 624.5,333.5C 624.833,332.5 625.5,331.833 626.5,331.5C 627.239,331.369 627.906,331.536 628.5,332C 626.842,332.725 626.342,333.892 627,335.5C 628.137,334.636 629.47,333.636 631,332.5C 631.333,331.5 631.667,330.5 632,329.5C 632.419,330.672 633.085,331.672 634,332.5C 640.302,333.133 643.802,332.8 644.5,331.5C 644.5,330.5 644.5,329.5 644.5,328.5C 647.14,328.553 649.64,329.22 652,330.5C 654.059,329.382 656.226,328.715 658.5,328.5C 658.5,327.167 658.5,325.833 658.5,324.5C 667.573,321.905 676.906,320.238 686.5,319.5C 687.5,318.667 688.5,317.833 689.5,317C 692.682,316.593 695.849,316.093 699,315.5C 701.733,317.428 702.9,316.761 702.5,313.5C 710.939,310.952 719.606,309.118 728.5,308C 731.393,307.499 733.893,306.333 736,304.5C 737.38,307.058 738.88,307.058 740.5,304.5C 741.5,305.167 742.5,305.833 743.5,306.5C 744.362,314.997 745.362,323.33 746.5,331.5 Z"/></g>
<g><path style="opacity:1" fill="#bf3a55" d="M 412.5,299.5 C 414.495,345.155 415.162,391.155 414.5,437.5C 388.768,428.033 363.101,418.367 337.5,408.5C 336.889,402.566 337.722,396.9 340,391.5C 350.94,379.01 361.44,366.01 371.5,352.5C 383.301,335.185 396.467,318.852 411,303.5C 411.791,302.255 412.291,300.922 412.5,299.5 Z"/></g>
<g><path style="opacity:1" fill="#f4a35d" d="M 93.5,247.5 C 134.833,262.5 176.167,277.5 217.5,292.5C 239.767,300.756 262.1,308.923 284.5,317C 287.833,317.667 291.167,317.667 294.5,317C 308.122,314.509 321.789,312.342 335.5,310.5C 335.5,333.833 335.5,357.167 335.5,380.5C 289.322,362.083 243.322,343.083 197.5,323.5C 192.968,321.403 188.635,319.069 184.5,316.5C 181.026,313.198 177.359,310.032 173.5,307C 146.052,287.269 119.385,267.435 93.5,247.5 Z"/></g>
<g><path style="opacity:1" fill="#f3b637" d="M 620.5,291.5 C 620.5,325.833 620.5,360.167 620.5,394.5C 619.167,377.68 618.5,360.513 618.5,343C 618.5,325.487 619.167,308.32 620.5,291.5 Z"/></g>
<g><path style="opacity:1" fill="#f8bd81" d="M 197.5,323.5 C 243.322,343.083 289.322,362.083 335.5,380.5C 335.5,389.5 335.5,398.5 335.5,407.5C 335.5,409.5 335.5,411.5 335.5,413.5C 335.167,413.5 334.833,413.5 334.5,413.5C 287.941,384.73 242.274,354.73 197.5,323.5 Z"/></g>
<g><path style="opacity:0.999" fill="#1a9cb6" d="M 746.5,333.5 C 746.5,349.167 746.5,364.833 746.5,380.5C 745.792,374.55 744.626,368.55 743,362.5C 741.316,368.943 740.149,368.943 739.5,362.5C 734.574,363.982 729.574,365.315 724.5,366.5C 722.668,367.248 721.001,368.248 719.5,369.5C 718.808,368.975 718.308,368.308 718,367.5C 717.729,371.13 716.062,372.13 713,370.5C 699.119,374.035 686.286,376.868 674.5,379C 675.167,379.333 675.833,379.667 676.5,380C 667.364,380.991 658.364,383.324 649.5,387C 647.167,387.333 644.833,387.667 642.5,388C 642.833,388.333 643.167,388.667 643.5,389C 641.167,389.333 638.833,389.667 636.5,390C 636.833,390.333 637.167,390.667 637.5,391C 636.234,391.309 635.067,391.809 634,392.5C 632.251,391.701 630.918,392.368 630,394.5C 629.612,392.285 628.612,390.952 627,390.5C 626.333,391.833 625.667,393.167 625,394.5C 624.737,402.533 624.237,410.533 623.5,418.5C 622.833,416.167 622.167,413.833 621.5,411.5C 621.5,385.833 621.5,360.167 621.5,334.5C 622.391,333.89 623.391,333.557 624.5,333.5C 623.202,341.109 623.202,348.776 624.5,356.5C 626.56,354.108 628.727,354.108 631,356.5C 633.025,355.457 635.358,355.457 638,356.5C 642.724,355.086 647.557,354.252 652.5,354C 655.167,353.333 655.167,352.667 652.5,352C 655.095,351.774 657.595,351.274 660,350.5C 661,350.833 662,351.167 663,351.5C 667.686,349.989 672.186,347.489 676.5,344C 685.761,341.748 695.094,339.748 704.5,338C 709.919,334.7 715.419,333.867 721,335.5C 721.833,334.667 722.667,333.833 723.5,333C 727.99,332.113 732.49,331.279 737,330.5C 738.326,330.755 739.326,331.422 740,332.5C 741,331.167 742,329.833 743,328.5C 743.549,330.76 744.716,332.426 746.5,333.5 Z"/></g>
<g><path style="opacity:1" fill="#1ca5c0" d="M 746.5,380.5 C 746.5,385.167 746.5,389.833 746.5,394.5C 705.129,400.974 664.129,408.974 623.5,418.5C 624.237,410.533 624.737,402.533 625,394.5C 625.667,393.167 626.333,391.833 627,390.5C 628.612,390.952 629.612,392.285 630,394.5C 630.918,392.368 632.251,391.701 634,392.5C 635.067,391.809 636.234,391.309 637.5,391C 637.167,390.667 636.833,390.333 636.5,390C 638.833,389.667 641.167,389.333 643.5,389C 643.167,388.667 642.833,388.333 642.5,388C 644.833,387.667 647.167,387.333 649.5,387C 658.364,383.324 667.364,380.991 676.5,380C 675.833,379.667 675.167,379.333 674.5,379C 686.286,376.868 699.119,374.035 713,370.5C 716.062,372.13 717.729,371.13 718,367.5C 718.308,368.308 718.808,368.975 719.5,369.5C 721.001,368.248 722.668,367.248 724.5,366.5C 729.574,365.315 734.574,363.982 739.5,362.5C 740.149,368.943 741.316,368.943 743,362.5C 744.626,368.55 745.792,374.55 746.5,380.5 Z"/></g>
<g><path style="opacity:1" fill="#bf5a45" d="M 340.5,309.5 C 339.817,311.176 338.483,311.843 336.5,311.5C 336.5,343.5 336.5,375.5 336.5,407.5C 336.167,407.5 335.833,407.5 335.5,407.5C 335.5,398.5 335.5,389.5 335.5,380.5C 335.5,357.167 335.5,333.833 335.5,310.5C 337.042,309.699 338.708,309.366 340.5,309.5 Z"/></g>
<g><path style="opacity:1" fill="#bd473d" d="M 407.5,299.5 C 408.919,298.549 410.585,298.216 412.5,298.5C 413.5,298.5 414.5,298.5 415.5,298.5C 415.5,424.833 415.5,551.167 415.5,677.5C 415.167,677.5 414.833,677.5 414.5,677.5C 414.5,597.5 414.5,517.5 414.5,437.5C 415.162,391.155 414.495,345.155 412.5,299.5C 410.833,299.5 409.167,299.5 407.5,299.5 Z"/></g>
<g><path style="opacity:1" fill="#e7653d" d="M 620.5,395.5 C 620.5,430.167 620.5,464.833 620.5,499.5C 588.196,513.733 556.029,528.4 524,543.5C 523.5,573.165 523.333,602.831 523.5,632.5C 524.833,632.5 526.167,632.5 527.5,632.5C 515.142,638.339 502.475,643.673 489.5,648.5C 489.5,580.833 489.5,513.167 489.5,445.5C 532.794,428.026 576.461,411.36 620.5,395.5 Z"/></g>
<g><path style="opacity:0.999" fill="#1db9d7" d="M 746.5,394.5 C 746.5,444.167 746.5,493.833 746.5,543.5C 705.725,560.541 664.725,577.207 623.5,593.5C 623.392,535.341 623.392,477.007 623.5,418.5C 664.129,408.974 705.129,400.974 746.5,394.5 Z"/></g>
<g><path style="opacity:1" fill="#f45c7e" d="M 337.5,408.5 C 363.101,418.367 388.768,428.033 414.5,437.5C 414.5,517.5 414.5,597.5 414.5,677.5C 413.5,677.5 412.5,677.5 411.5,677.5C 369.915,659.638 328.248,641.972 286.5,624.5C 286.461,623.417 286.127,622.417 285.5,621.5C 283.604,620.534 281.604,620.201 279.5,620.5C 279.67,619.178 279.337,618.011 278.5,617C 275.5,616.667 272.5,616.333 269.5,616C 271.891,614.691 271.891,613.691 269.5,613C 266.183,612.502 262.85,612.335 259.5,612.5C 259.657,611.127 259.49,609.793 259,608.5C 258.586,608.957 258.086,609.291 257.5,609.5C 250.792,607.978 244.792,605.144 239.5,601C 236.774,600.818 234.107,600.318 231.5,599.5C 232.025,598.808 232.692,598.308 233.5,598C 233.167,597.667 232.833,597.333 232.5,597C 228.833,596.667 225.167,596.333 221.5,596C 223.125,595.147 223.458,594.147 222.5,593C 218.789,592.825 215.122,592.325 211.5,591.5C 211.709,590.914 212.043,590.414 212.5,590C 209.529,589.206 206.529,588.539 203.5,588C 202.167,587.333 202.167,586.667 203.5,586C 199.56,584.985 195.56,584.485 191.5,584.5C 187.203,583.345 183.203,581.679 179.5,579.5C 179.5,533.5 179.5,487.5 179.5,441.5C 180.5,441.5 181.5,441.5 182.5,441.5C 231.156,460.827 279.823,480.16 328.5,499.5C 329.122,501.456 330.455,502.789 332.5,503.5C 334.135,502.954 335.801,502.62 337.5,502.5C 337.5,471.167 337.5,439.833 337.5,408.5 Z"/></g>
<g><path style="opacity:1" fill="#de6d74" d="M 335.5,407.5 C 335.833,407.5 336.167,407.5 336.5,407.5C 336.5,408.167 336.833,408.5 337.5,408.5C 337.5,439.833 337.5,471.167 337.5,502.5C 335.801,502.62 334.135,502.954 332.5,503.5C 330.455,502.789 329.122,501.456 328.5,499.5C 329.391,500.11 330.391,500.443 331.5,500.5C 332.568,501.434 333.901,501.768 335.5,501.5C 335.5,472.167 335.5,442.833 335.5,413.5C 335.5,411.5 335.5,409.5 335.5,407.5 Z"/></g>
<g><path style="opacity:1" fill="#e16f36" d="M 488.5,445.5 C 488.833,445.5 489.167,445.5 489.5,445.5C 489.5,513.167 489.5,580.833 489.5,648.5C 488.833,648.5 488.167,648.5 487.5,648.5C 487.17,580.762 487.504,513.096 488.5,445.5 Z"/></g>
<g><path style="opacity:1" fill="#fedab3" d="M 334.5,413.5 C 334.833,413.5 335.167,413.5 335.5,413.5C 335.5,442.833 335.5,472.167 335.5,501.5C 333.901,501.768 332.568,501.434 331.5,500.5C 332.5,500.5 333.5,500.5 334.5,500.5C 334.5,471.5 334.5,442.5 334.5,413.5 Z"/></g>
<g><path style="opacity:1" fill="#feab52" d="M 488.5,445.5 C 487.504,513.096 487.17,580.762 487.5,648.5C 487.5,648.833 487.5,649.167 487.5,649.5C 486.609,650.11 485.609,650.443 484.5,650.5C 485.82,581.971 487.154,513.638 488.5,445.5 Z"/></g>
<g><path style="opacity:1" fill="#dd7270" d="M 182.5,441.5 C 181.5,441.5 180.5,441.5 179.5,441.5C 179.5,487.5 179.5,533.5 179.5,579.5C 178.508,579.672 177.842,579.338 177.5,578.5C 177.5,532.167 177.5,485.833 177.5,439.5C 179.553,439.402 181.22,440.069 182.5,441.5 Z"/></g>
<g><path style="opacity:0.631" fill="#5aa6b0" d="M 747.5,243.5 C 747.5,321.833 747.5,400.167 747.5,478.5C 747.831,500.34 747.497,522.006 746.5,543.5C 746.5,493.833 746.5,444.167 746.5,394.5C 746.5,389.833 746.5,385.167 746.5,380.5C 746.5,364.833 746.5,349.167 746.5,333.5C 746.5,332.833 746.5,332.167 746.5,331.5C 746.831,302.662 746.498,273.995 745.5,245.5C 744.5,245.5 743.5,245.5 742.5,245.5C 743.78,244.069 745.447,243.402 747.5,243.5 Z"/></g>
<g><path style="opacity:1" fill="#21b8e0" d="M 621.5,411.5 C 622.167,413.833 622.833,416.167 623.5,418.5C 623.392,477.007 623.392,535.341 623.5,593.5C 623.158,594.338 622.492,594.672 621.5,594.5C 621.5,533.5 621.5,472.5 621.5,411.5 Z"/></g>
<g><path style="opacity:1" fill="#d74239" d="M 620.5,499.5 C 620.833,531.507 620.5,563.507 619.5,595.5C 588.957,608.234 558.291,620.568 527.5,632.5C 526.167,632.5 524.833,632.5 523.5,632.5C 523.333,602.831 523.5,573.165 524,543.5C 556.029,528.4 588.196,513.733 620.5,499.5 Z"/></g>
<g><path style="opacity:1" fill="#fca35b" d="M 415.5,296.5 C 416.167,296.5 416.833,296.5 417.5,296.5C 424.091,298.481 430.758,300.148 437.5,301.5C 430.73,301.714 424.063,301.047 417.5,299.5C 416.835,425.504 417.502,551.171 419.5,676.5C 419.5,676.833 419.5,677.167 419.5,677.5C 418.167,677.5 416.833,677.5 415.5,677.5C 415.5,551.167 415.5,424.833 415.5,298.5C 414.5,298.5 413.5,298.5 412.5,298.5C 413.5,297.833 414.5,297.167 415.5,296.5 Z"/></g>
<g><path style="opacity:0.259" fill="#d3dbd9" d="M 747.5,478.5 C 748.833,478.5 750.167,478.5 751.5,478.5C 750.389,500.722 750.389,522.722 751.5,544.5C 748.528,548.973 744.528,552.14 739.5,554C 704.182,568.503 668.849,582.669 633.5,596.5C 632.745,594.534 631.579,594.2 630,595.5C 629.667,594.833 629.333,594.167 629,593.5C 626.643,595.646 624.143,595.979 621.5,594.5C 622.492,594.672 623.158,594.338 623.5,593.5C 664.725,577.207 705.725,560.541 746.5,543.5C 747.497,522.006 747.831,500.34 747.5,478.5 Z"/></g>
<g><path style="opacity:1" fill="#ea647d" d="M 191.5,584.5 C 195.56,584.485 199.56,584.985 203.5,586C 202.167,586.667 202.167,587.333 203.5,588C 206.529,588.539 209.529,589.206 212.5,590C 212.043,590.414 211.709,590.914 211.5,591.5C 215.122,592.325 218.789,592.825 222.5,593C 223.458,594.147 223.125,595.147 221.5,596C 225.167,596.333 228.833,596.667 232.5,597C 232.833,597.333 233.167,597.667 233.5,598C 232.692,598.308 232.025,598.808 231.5,599.5C 234.107,600.318 236.774,600.818 239.5,601C 244.792,605.144 250.792,607.978 257.5,609.5C 258.086,609.291 258.586,608.957 259,608.5C 259.49,609.793 259.657,611.127 259.5,612.5C 262.85,612.335 266.183,612.502 269.5,613C 271.891,613.691 271.891,614.691 269.5,616C 272.5,616.333 275.5,616.667 278.5,617C 279.337,618.011 279.67,619.178 279.5,620.5C 281.604,620.201 283.604,620.534 285.5,621.5C 286.127,622.417 286.461,623.417 286.5,624.5C 254.594,611.538 222.927,598.204 191.5,584.5 Z"/></g>
<g><path style="opacity:0.278" fill="#cecdcd" d="M 83.5,541.5 C 83.8333,541.5 84.1667,541.5 84.5,541.5C 86.9029,541.448 89.2362,541.781 91.5,542.5C 96.8515,545.774 102.518,548.607 108.5,551C 113.612,551.932 118.612,553.099 123.5,554.5C 123.5,555.5 123.5,556.5 123.5,557.5C 133.953,560.983 144.287,564.65 154.5,568.5C 154.5,569.5 154.5,570.5 154.5,571.5C 162.274,573.558 169.94,575.891 177.5,578.5C 177.842,579.338 178.508,579.672 179.5,579.5C 183.203,581.679 187.203,583.345 191.5,584.5C 222.927,598.204 254.594,611.538 286.5,624.5C 328.248,641.972 369.915,659.638 411.5,677.5C 406.167,677.5 400.833,677.5 395.5,677.5C 298.027,636.927 200.027,597.76 101.5,560C 96.3743,557.518 91.3743,554.851 86.5,552C 84.2101,550.223 82.5434,548.056 81.5,545.5C 81.2291,543.62 81.8958,542.287 83.5,541.5 Z"/></g>
<g><path style="opacity:0.122" fill="#c4c1bc" d="M 620.5,289.5 C 620.833,289.5 621.167,289.5 621.5,289.5C 621.5,304.5 621.5,319.5 621.5,334.5C 621.5,360.167 621.5,385.833 621.5,411.5C 621.5,472.5 621.5,533.5 621.5,594.5C 624.143,595.979 626.643,595.646 629,593.5C 629.333,594.167 629.667,594.833 630,595.5C 631.579,594.2 632.745,594.534 633.5,596.5C 568.177,623.494 502.843,650.494 437.5,677.5C 431.5,677.5 425.5,677.5 419.5,677.5C 419.5,677.167 419.5,676.833 419.5,676.5C 435.611,670.687 451.611,664.687 467.5,658.5C 474.685,656.229 481.351,653.229 487.5,649.5C 487.5,649.167 487.5,648.833 487.5,648.5C 488.167,648.5 488.833,648.5 489.5,648.5C 502.475,643.673 515.142,638.339 527.5,632.5C 558.291,620.568 588.957,608.234 619.5,595.5C 620.5,563.507 620.833,531.507 620.5,499.5C 620.5,464.833 620.5,430.167 620.5,395.5C 620.5,395.167 620.5,394.833 620.5,394.5C 620.5,360.167 620.5,325.833 620.5,291.5C 620.5,290.833 620.5,290.167 620.5,289.5 Z"/></g>
<g><path style="opacity:0.749" fill="#e3c195" d="M 487.5,649.5 C 481.351,653.229 474.685,656.229 467.5,658.5C 468.903,657.069 470.569,655.902 472.5,655C 476.519,653.497 480.519,651.997 484.5,650.5C 485.609,650.443 486.609,650.11 487.5,649.5 Z"/></g>
</svg>
